:SAMPLES-PER-SECOND 30
:FULLY-SPECIFIED
:DEGREES
191
root  34.84266987 36.49325934 -14.95633613 9.125632286 -7.222269535 4.556195259
lowerback  -6.928629875 -1.671689987 -1.214089751
upperback  -4.158287048 -1.644386292 -4.193475246
thorax  -0.4920912087 -0.6383033395 -3.759180069
lowerneck  1.567199945 -19.62109947 -13.05210018
upperneck  7.355070114 -27.54070091 16.21949959
head  6.040679932 -13.28518677 4.753880024
lclavicle  0 -4.497500157e-015 -2.743230041e-014
lhumerus  -49.97079849 29.72120094 60.24229813
lradius  -2.057401616e-006 -6.507048965e-006 29.87409973
lwrist  4.824992743e-007 -3.790274832e-007 -29.76429939
lhand  -4.446661019e-031 -37.42900085 -10.61639977
lfingers  90 7.125020027 -90
lthumb  95.05099193 -25.43419218 101.6290747
rclavicle  0 -4.497500157e-015 -2.743230041e-014
rhumerus  -16.86840057 -35.85929871 6.9046278
rradius  -5.16745672e-007 2.214343908e-008 38.63100052
rwrist  -0.0001011603963 -0.001600692281 -166.2330017
rhand  -1.771050294e-031 4.511620045 -7.699289799
rfingers  -90 -7.125020027 -90
rthumb  -85.1311005 -8.395124379 -59.73844529
rfemur  -14.40062904 16.36037254 11.65802193
rtibia  -1.909071565 -2.097967386 22.50892258
rfoot  -0.2599328756 -23.2955246 -34.67271042
rtoes  3.84916503 19.64100437 -101.3192284
lfemur  -9.444387436 -17.29370689 -21.35015488
ltibia  2.568817377 -2.165177822 15.62479591
lfoot  1.514211774 -21.84920311 39.04862213
ltoes  -8.691414072 -18.08281019 -116.2203142
192
root  34.84234547 36.49232519 -14.95917763 9.104984283 -7.205325603 4.551347733
lowerback  -6.948321819 -1.66950345 -1.212748766
upperback  -4.157095432 -1.640969992 -4.191184521
thorax  -0.4861150086 -0.6374499798 -3.759670019
lowerneck  1.593919992 -19.61849976 -13.06680012
upperneck  7.356910229 -27.54079819 16.2404995
head  6.042220116 -13.28289986 4.763820171
lclavicle  0 -4.497500157e-015 -2.743230041e-014
lhumerus  -49.95500183 29.67440033 60.2879982
lradius  -2.057401616e-006 -6.507048965e-006 29.89139938
lwrist  4.824992743e-007 -3.790274832e-007 -29.72369957
lhand  -4.446417461e-031 -37.42490005 -10.58600044
lfingers  90 7.125020027 -90
lthumb  95.04224877 -25.40447313 101.6217233
rclavicle  0 -4.497500157e-015 -2.743230041e-014
rhumerus  -17.09880066 -36.26929855 6.918678761
rradius  -5.16745672e-007 2.214343908e-008 38.81330109
rwrist  -0.0001011603963 -0.001600692281 -165.8730011
rhand  -1.771052586e-031 4.512559891 -7.809189796
rfingers  -90 -7.125020027 -90
rthumb  -85.18683755 -8.300293962 -59.74564965
rfemur  -14.37937737 16.36264801 11.67031479
rtibia  -1.909599543 -2.086565733 22.50815773
rfoot  -0.2666429579 -23.28042221 -34.70342255
rtoes  3.85329536 19.64022527 -101.3315167
lfemur  -9.445000648 -17.35881615 -21.34727478
ltibia  2.545751095 -2.208034039 15.65909767
lfoot  1.477005363 -21.77433014 39.00311661
ltoes  -8.69457704 -18.08132903 -116.2305049
193
root  34.84215924 36.49231317 -14.96213778 9.104984283 -7.193701267 4.537228584
lowerback  -6.936655998 -1.667058349 -1.226051569
upperback  -4.154058456 -1.651559949 -4.189559937
thorax  -0.4841671586 -0.636510551 -3.744750023
lowerneck  1.585989952 -19.60510063 -13.10050011
upperneck  7.384449959 -27.52659988 16.25230026
head  6.056519985 -13.27490044 4.770679951
lclavicle  0 -4.497500157e-015 -2.743230041e-014
lhumerus  -49.95679855 29.73970032 60.2641983
lradius  -2.057401616e-006 -6.507048965e-006 29.86700249
lwrist  4.824992743e-007 -3.790274832e-007 -29.84790039
lhand  -4.446601654e-031 -37.4280014 -10.61180019
lfingers  90 7.125020027 -90
lthumb  95.04951702 -25.4296681 101.6276323
rclavicle  0 -4.497500157e-015 -2.743230041e-014
rhumerus  -17.24340057 -36.67089462 6.910957336
rradius  -5.16745672e-007 2.214343908e-008 38.98590088
rwrist  -0.0001011603963 -0.001600692281 -165.7250061
rhand  -3.541917169e-031 4.473859787 -7.98153019
rfingers  -90 -7.125020027 -90
rthumb  -85.28320901 -8.14869919 -59.79582969
rfemur  -14.37225056 16.38650131 11.68353748
rtibia  -1.910194159 -2.083162785 22.48997307
rfoot  -0.2596822679 -23.27114677 -34.72434616
rtoes  3.817360704 19.64697437 -101.2246219
lfemur  -9.485172272 -17.34265709 -21.31069756
ltibia  2.512506247 -2.200658083 15.71608543
lfoot  1.480690002 -21.8153019 38.98938751
ltoes  -8.698869154 -18.07931802 -116.2443348
194
root  34.84209016 36.4916854 -14.96411271 9.102193832 -7.178469658 4.532207489
lowerback  -6.937902451 -1.665222645 -1.220616579
upperback  -4.150506496 -1.655449986 -4.188600063
thorax  -0.4840494692 -0.6355155706 -3.747289896
lowerneck  1.55637002 -19.60210037 -13.10079956
upperneck  7.456449986 -27.52499771 16.2208004
head  6.078919888 -13.27079964 4.75658989
lclavicle  0 -4.497500157e-015 -2.743230041e-014
lhumerus  -49.94070053 29.76160049 60.27230072
lradius  -2.057401616e-006 -6.507048965e-006 29.8558979
lwrist  4.824992743e-007 -3.790274832e-007 -29.86510086
lhand  -0 -37.4673996 -10.46850014
lfingers  90 7.125020027 -90
lthumb  95.03588168 -25.28783741 101.6559982
rclavicle  0 -4.497500157e-015 -2.743230041e-014
rhumerus  -17.42239952 -36.81060028 6.953801155
rradius  -5.16745672e-007 2.214343908e-008 39.11299896
rwrist  -0.0001011603963 -0.001600692281 -165.9129944
rhand  -1.770891108e-031 4.445869923 -7.740680218
rfingers  -90 -7.125020027 -90
rthumb  -85.1671157 -8.354892144 -59.8055004
rfemur  -14.34980297 16.39030647 11.69005585
rtibia  -1.910681248 -2.075611115 22.46715355
rfoot  -0.2420734018 -23.25149536 -34.72806549
rtoes  3.821813222 19.64614169 -101.2378649
lfemur  -9.519208908 -17.29929161 -21.28418541
ltibia  2.481674194 -2.198547363 15.76893806
lfoot  1.470476627 -21.84635544 38.92601395
ltoes  -8.673915613 -18.0909922 -116.1639511
195
root  34.84341479 36.49226211 -14.96642105 9.097740173 -7.184569359 4.515245438
lowerback  -6.940790176 -1.664057851 -1.244700193
upperback  -4.147771358 -1.655926824 -4.179900169
thorax  -0.4846580029 -0.6344956756 -3.724159956
lowerneck  1.56001997 -19.57970047 -13.08889961
upperneck  7.497189999 -27.49290085 16.17090034
head  6.077199936 -13.25640011 4.746059895
lclavicle  0 -4.497500157e-015 -2.743230041e-014
lhumerus  -49.93330002 29.70590019 60.34180069
lradius  -2.057401616e-006 -6.507048965e-006 29.89209938
lwrist  4.824992743e-007 -3.790274832e-007 -29.78450012
lhand  -4.448087333e-031 -37.45299911 -10.51399994
lfingers  90 7.125020027 -90
lthumb  95.03934072 -25.33293486 101.6449592
rclavicle  0 -4.497500157e-015 -2.743230041e-014
rhumerus  -17.62750053 -36.88399506 7.004712105
rradius  -5.16745672e-007 2.214343908e-008 39.29710007
rwrist  -0.0001011603963 -0.001600692281 -166.1179962
rhand  -1.770973566e-031 4.480050087 -7.913489819
rfingers  -90 -7.125020027 -90
rthumb  -85.24723647 -8.207930575 -59.78489293
rfemur  -14.34769154 16.40086365 11.70068169
rtibia  -1.910886765 -2.064984083 22.44659996
rfoot  -0.2357410043 -23.2285347 -34.74515915
rtoes  3.801329487 19.64996402 -101.1769452
lfemur  -9.557300568 -17.35135078 -21.24791908
ltibia  2.444958925 -2.213493586 15.82924461
lfoot  1.481499791 -21.84248161 38.97911835
ltoes  -8.667585409 -18.09394701 -116.1435673
196
root  34.84497371 36.49270065 -14.96790338 9.09108448 -7.168685913 4.5031991
lowerback  -6.935620308 -1.661166668 -1.262789726
upperback  -4.145550251 -1.655011415 -4.177020073
thorax  -0.4863510132 -0.6334812641 -3.710989952
lowerneck  1.584409952 -19.56520081 -13.07250023
upperneck  7.486090183 -27.4708004 16.15550041
head  6.061989784 -13.24820042 4.74695015
lclavicle  0 -4.497500157e-015 -2.743230041e-014
lhumerus  -49.90019989 29.66130066 60.40159988
lradius  -2.057401616e-006 -6.507048965e-006 29.90639877
lwrist  4.824992743e-007 -3.790274832e-007 -29.70890045
lhand  -4.444749912e-031 -37.39680099 -10.59200001
lfingers  90 7.125020027 -90
lthumb  95.03052065 -25.41144884 101.5923974
rclavicle  0 -4.497500157e-015 -2.743230041e-014
rhumerus  -17.86919975 -37.4129982 7.002952576
rradius  -5.16745672e-007 2.214343908e-008 39.52690125
rwrist  -0.0001011603963 -0.001600692281 -165.8179932
rhand  -1.771011023e-031 4.495490074 -8.010800362
rfingers  -90 -7.125020027 -90
rthumb  -85.2932856 -8.124887646 -59.77693282
rfemur  -14.33499813 16.38953209 11.71447372
rtibia  -1.910636902 -2.05087018 22.44013786
rfoot  -0.2375107855 -23.21160889 -34.7535553
rtoes  3.822133895 19.64608168 -101.2388187
lfemur  -9.582235336 -17.35368538 -21.21927071
ltibia  2.413467407 -2.200232267 15.86873531
lfoot  1.479143023 -21.8907032 38.97730637
ltoes  -8.67904985 -18.08859366 -116.1804861
197
root  34.84633138 36.49261054 -14.97055414 9.071059227 -7.167685986 4.500479698
lowerback  -6.956350327 -1.657615066 -1.280329585
upperback  -4.143650055 -1.653276563 -4.164120197
thorax  -0.464639008 -0.6325029731 -3.688050032
lowerneck  1.570590019 -19.56119919 -13.09309959
upperneck  7.503610134 -27.46769905 16.16430092
head  6.073440075 -13.24549961 4.749670029
lclavicle  0 -4.497500157e-015 -2.743230041e-014
lhumerus  -49.87860107 29.73080063 60.40819931
lradius  -2.057401616e-006 -6.507048965e-006 29.91120148
lwrist  4.824992743e-007 -3.790274832e-007 -29.77160072
lhand  -4.442818134e-031 -37.36420059 -10.59729958
lfingers  90 7.125020027 -90
lthumb  95.01643218 -25.41783031 101.5580081
rclavicle  0 -4.497500157e-015 -2.743230041e-014
rhumerus  -18.15539932 -37.82229996 7.036241531
rradius  -5.16745672e-007 2.214343908e-008 39.83620071
rwrist  -0.0001011603963 -0.001600692281 -165.677002
rhand  -1.771169402e-031 4.560190201 -7.976029873
rfingers  -90 -7.125020027 -90
rthumb  -85.2611118 -8.159445688 -59.71140672
rfemur  -14.33009624 16.42137146 11.72443199
rtibia  -1.909757376 -2.027137756 22.4624939
rfoot  -0.248977825 -23.17638016 -34.77775955
rtoes  3.844322007 19.64191679 -101.3048203
lfemur  -9.530299187 -17.3184967 -21.22758102
ltibia  2.432973623 -2.180858612 15.82123566
lfoot  1.48295784 -21.90535164 38.98952103
ltoes  -8.670782695 -18.09245492 -116.1538624
